<mxfile host="app.diagrams.net" agent="Mozilla/5.0 (Windows NT 10.0; Win64; x64) AppleWebKit/537.36 (KHTML, like Gecko) Chrome/131.0.0.0 Safari/537.36" version="26.0.7">
  <diagram name="Pagina-1" id="Kz0Wd9C6RC1CToYFPiEt">
    <mxGraphModel dx="3033" dy="1200" grid="1" gridSize="10" guides="1" tooltips="1" connect="1" arrows="1" fold="1" page="1" pageScale="1" pageWidth="827" pageHeight="1169" math="0" shadow="0">
      <root>
        <mxCell id="0" />
        <mxCell id="1" parent="0" />
        <mxCell id="qySLcsmaPfTQFOACS7lU-2" style="edgeStyle=orthogonalEdgeStyle;rounded=0;orthogonalLoop=1;jettySize=auto;html=1;" edge="1" parent="1" source="qySLcsmaPfTQFOACS7lU-1" target="qySLcsmaPfTQFOACS7lU-3">
          <mxGeometry relative="1" as="geometry">
            <mxPoint x="416" y="160" as="targetPoint" />
          </mxGeometry>
        </mxCell>
        <mxCell id="qySLcsmaPfTQFOACS7lU-1" value="START" style="ellipse;whiteSpace=wrap;html=1;" vertex="1" parent="1">
          <mxGeometry x="356" y="40" width="120" height="80" as="geometry" />
        </mxCell>
        <mxCell id="qySLcsmaPfTQFOACS7lU-5" style="edgeStyle=orthogonalEdgeStyle;rounded=0;orthogonalLoop=1;jettySize=auto;html=1;" edge="1" parent="1" source="qySLcsmaPfTQFOACS7lU-3">
          <mxGeometry relative="1" as="geometry">
            <mxPoint x="416" y="260" as="targetPoint" />
          </mxGeometry>
        </mxCell>
        <mxCell id="qySLcsmaPfTQFOACS7lU-3" value="posti = 100" style="rounded=0;whiteSpace=wrap;html=1;" vertex="1" parent="1">
          <mxGeometry x="356" y="160" width="120" height="60" as="geometry" />
        </mxCell>
        <mxCell id="qySLcsmaPfTQFOACS7lU-6" style="edgeStyle=orthogonalEdgeStyle;rounded=0;orthogonalLoop=1;jettySize=auto;html=1;" edge="1" parent="1" source="qySLcsmaPfTQFOACS7lU-4" target="qySLcsmaPfTQFOACS7lU-7">
          <mxGeometry relative="1" as="geometry">
            <mxPoint x="416" y="360" as="targetPoint" />
          </mxGeometry>
        </mxCell>
        <mxCell id="qySLcsmaPfTQFOACS7lU-4" value="read input" style="shape=parallelogram;perimeter=parallelogramPerimeter;whiteSpace=wrap;html=1;fixedSize=1;" vertex="1" parent="1">
          <mxGeometry x="356" y="260" width="120" height="60" as="geometry" />
        </mxCell>
        <mxCell id="qySLcsmaPfTQFOACS7lU-10" style="edgeStyle=orthogonalEdgeStyle;rounded=0;orthogonalLoop=1;jettySize=auto;html=1;entryX=0;entryY=0.5;entryDx=0;entryDy=0;" edge="1" parent="1" source="qySLcsmaPfTQFOACS7lU-7" target="qySLcsmaPfTQFOACS7lU-13">
          <mxGeometry relative="1" as="geometry">
            <mxPoint x="560" y="400" as="targetPoint" />
          </mxGeometry>
        </mxCell>
        <mxCell id="qySLcsmaPfTQFOACS7lU-11" value="TRUE" style="edgeLabel;html=1;align=center;verticalAlign=middle;resizable=0;points=[];" vertex="1" connectable="0" parent="qySLcsmaPfTQFOACS7lU-10">
          <mxGeometry x="-0.1962" y="-2" relative="1" as="geometry">
            <mxPoint y="-2" as="offset" />
          </mxGeometry>
        </mxCell>
        <mxCell id="qySLcsmaPfTQFOACS7lU-23" style="edgeStyle=orthogonalEdgeStyle;rounded=0;orthogonalLoop=1;jettySize=auto;html=1;" edge="1" parent="1" source="qySLcsmaPfTQFOACS7lU-7">
          <mxGeometry relative="1" as="geometry">
            <mxPoint x="416" y="520" as="targetPoint" />
          </mxGeometry>
        </mxCell>
        <mxCell id="qySLcsmaPfTQFOACS7lU-24" value="FALSE" style="edgeLabel;html=1;align=center;verticalAlign=middle;resizable=0;points=[];" vertex="1" connectable="0" parent="qySLcsmaPfTQFOACS7lU-23">
          <mxGeometry x="-0.205" relative="1" as="geometry">
            <mxPoint as="offset" />
          </mxGeometry>
        </mxCell>
        <mxCell id="qySLcsmaPfTQFOACS7lU-7" value="input == &quot;iscrivi&quot;" style="rhombus;whiteSpace=wrap;html=1;" vertex="1" parent="1">
          <mxGeometry x="356" y="360" width="120" height="80" as="geometry" />
        </mxCell>
        <mxCell id="qySLcsmaPfTQFOACS7lU-16" style="edgeStyle=orthogonalEdgeStyle;rounded=0;orthogonalLoop=1;jettySize=auto;html=1;entryX=0.5;entryY=1;entryDx=0;entryDy=0;" edge="1" parent="1" source="qySLcsmaPfTQFOACS7lU-13" target="qySLcsmaPfTQFOACS7lU-15">
          <mxGeometry relative="1" as="geometry" />
        </mxCell>
        <mxCell id="qySLcsmaPfTQFOACS7lU-22" value="FALSE" style="edgeLabel;html=1;align=center;verticalAlign=middle;resizable=0;points=[];" vertex="1" connectable="0" parent="qySLcsmaPfTQFOACS7lU-16">
          <mxGeometry x="-0.0545" relative="1" as="geometry">
            <mxPoint as="offset" />
          </mxGeometry>
        </mxCell>
        <mxCell id="qySLcsmaPfTQFOACS7lU-19" style="edgeStyle=orthogonalEdgeStyle;rounded=0;orthogonalLoop=1;jettySize=auto;html=1;entryX=0;entryY=0.5;entryDx=0;entryDy=0;" edge="1" parent="1" source="qySLcsmaPfTQFOACS7lU-13" target="qySLcsmaPfTQFOACS7lU-18">
          <mxGeometry relative="1" as="geometry">
            <mxPoint x="710" y="400" as="targetPoint" />
          </mxGeometry>
        </mxCell>
        <mxCell id="qySLcsmaPfTQFOACS7lU-21" value="TRUE" style="edgeLabel;html=1;align=center;verticalAlign=middle;resizable=0;points=[];" vertex="1" connectable="0" parent="qySLcsmaPfTQFOACS7lU-19">
          <mxGeometry x="-0.175" y="-1" relative="1" as="geometry">
            <mxPoint as="offset" />
          </mxGeometry>
        </mxCell>
        <mxCell id="qySLcsmaPfTQFOACS7lU-13" value="posti &amp;gt; 0" style="rhombus;whiteSpace=wrap;html=1;" vertex="1" parent="1">
          <mxGeometry x="560" y="360" width="120" height="80" as="geometry" />
        </mxCell>
        <mxCell id="qySLcsmaPfTQFOACS7lU-17" style="edgeStyle=orthogonalEdgeStyle;rounded=0;orthogonalLoop=1;jettySize=auto;html=1;" edge="1" parent="1" source="qySLcsmaPfTQFOACS7lU-15" target="qySLcsmaPfTQFOACS7lU-4">
          <mxGeometry relative="1" as="geometry" />
        </mxCell>
        <mxCell id="qySLcsmaPfTQFOACS7lU-15" value="" style="ellipse;whiteSpace=wrap;html=1;aspect=fixed;" vertex="1" parent="1">
          <mxGeometry x="605" y="275" width="30" height="30" as="geometry" />
        </mxCell>
        <mxCell id="qySLcsmaPfTQFOACS7lU-69" style="edgeStyle=orthogonalEdgeStyle;rounded=0;orthogonalLoop=1;jettySize=auto;html=1;entryX=0.5;entryY=1;entryDx=0;entryDy=0;" edge="1" parent="1" source="qySLcsmaPfTQFOACS7lU-18" target="qySLcsmaPfTQFOACS7lU-68">
          <mxGeometry relative="1" as="geometry" />
        </mxCell>
        <mxCell id="qySLcsmaPfTQFOACS7lU-18" value="posti--" style="rounded=0;whiteSpace=wrap;html=1;" vertex="1" parent="1">
          <mxGeometry x="760" y="370" width="120" height="60" as="geometry" />
        </mxCell>
        <mxCell id="qySLcsmaPfTQFOACS7lU-37" style="edgeStyle=orthogonalEdgeStyle;rounded=0;orthogonalLoop=1;jettySize=auto;html=1;" edge="1" parent="1" source="qySLcsmaPfTQFOACS7lU-25">
          <mxGeometry relative="1" as="geometry">
            <mxPoint x="280" y="560" as="targetPoint" />
          </mxGeometry>
        </mxCell>
        <mxCell id="qySLcsmaPfTQFOACS7lU-38" value="TRUE" style="edgeLabel;html=1;align=center;verticalAlign=middle;resizable=0;points=[];" vertex="1" connectable="0" parent="qySLcsmaPfTQFOACS7lU-37">
          <mxGeometry x="-0.0066" y="4" relative="1" as="geometry">
            <mxPoint x="1" y="-4" as="offset" />
          </mxGeometry>
        </mxCell>
        <mxCell id="qySLcsmaPfTQFOACS7lU-48" style="edgeStyle=orthogonalEdgeStyle;rounded=0;orthogonalLoop=1;jettySize=auto;html=1;" edge="1" parent="1" source="qySLcsmaPfTQFOACS7lU-25">
          <mxGeometry relative="1" as="geometry">
            <mxPoint x="416" y="680" as="targetPoint" />
          </mxGeometry>
        </mxCell>
        <mxCell id="qySLcsmaPfTQFOACS7lU-49" value="FALSE" style="edgeLabel;html=1;align=center;verticalAlign=middle;resizable=0;points=[];" vertex="1" connectable="0" parent="qySLcsmaPfTQFOACS7lU-48">
          <mxGeometry x="-0.0808" y="3" relative="1" as="geometry">
            <mxPoint x="-5" as="offset" />
          </mxGeometry>
        </mxCell>
        <mxCell id="qySLcsmaPfTQFOACS7lU-25" value="input == &quot;iscrivi&quot;" style="rhombus;whiteSpace=wrap;html=1;" vertex="1" parent="1">
          <mxGeometry x="356" y="520" width="120" height="80" as="geometry" />
        </mxCell>
        <mxCell id="qySLcsmaPfTQFOACS7lU-40" style="edgeStyle=orthogonalEdgeStyle;rounded=0;orthogonalLoop=1;jettySize=auto;html=1;" edge="1" parent="1" source="qySLcsmaPfTQFOACS7lU-39">
          <mxGeometry relative="1" as="geometry">
            <mxPoint x="80" y="560" as="targetPoint" />
          </mxGeometry>
        </mxCell>
        <mxCell id="qySLcsmaPfTQFOACS7lU-41" value="TRUE" style="edgeLabel;html=1;align=center;verticalAlign=middle;resizable=0;points=[];" vertex="1" connectable="0" parent="qySLcsmaPfTQFOACS7lU-40">
          <mxGeometry x="0.0923" y="3" relative="1" as="geometry">
            <mxPoint x="4" y="-3" as="offset" />
          </mxGeometry>
        </mxCell>
        <mxCell id="qySLcsmaPfTQFOACS7lU-44" style="edgeStyle=orthogonalEdgeStyle;rounded=0;orthogonalLoop=1;jettySize=auto;html=1;entryX=0.5;entryY=1;entryDx=0;entryDy=0;" edge="1" parent="1" source="qySLcsmaPfTQFOACS7lU-39" target="qySLcsmaPfTQFOACS7lU-43">
          <mxGeometry relative="1" as="geometry" />
        </mxCell>
        <mxCell id="qySLcsmaPfTQFOACS7lU-46" value="FALSE" style="edgeLabel;html=1;align=center;verticalAlign=middle;resizable=0;points=[];" vertex="1" connectable="0" parent="qySLcsmaPfTQFOACS7lU-44">
          <mxGeometry x="-0.2" y="-1" relative="1" as="geometry">
            <mxPoint x="-1" y="36" as="offset" />
          </mxGeometry>
        </mxCell>
        <mxCell id="qySLcsmaPfTQFOACS7lU-39" value="posti &amp;lt; 100" style="rhombus;whiteSpace=wrap;html=1;" vertex="1" parent="1">
          <mxGeometry x="160" y="520" width="120" height="80" as="geometry" />
        </mxCell>
        <mxCell id="qySLcsmaPfTQFOACS7lU-60" style="edgeStyle=orthogonalEdgeStyle;rounded=0;orthogonalLoop=1;jettySize=auto;html=1;entryX=0.5;entryY=1;entryDx=0;entryDy=0;" edge="1" parent="1" source="qySLcsmaPfTQFOACS7lU-42" target="qySLcsmaPfTQFOACS7lU-59">
          <mxGeometry relative="1" as="geometry" />
        </mxCell>
        <mxCell id="qySLcsmaPfTQFOACS7lU-42" value="posti++" style="rounded=0;whiteSpace=wrap;html=1;" vertex="1" parent="1">
          <mxGeometry x="-40" y="530" width="120" height="60" as="geometry" />
        </mxCell>
        <mxCell id="qySLcsmaPfTQFOACS7lU-45" style="edgeStyle=orthogonalEdgeStyle;rounded=0;orthogonalLoop=1;jettySize=auto;html=1;" edge="1" parent="1" source="qySLcsmaPfTQFOACS7lU-43" target="qySLcsmaPfTQFOACS7lU-4">
          <mxGeometry relative="1" as="geometry" />
        </mxCell>
        <mxCell id="qySLcsmaPfTQFOACS7lU-43" value="" style="ellipse;whiteSpace=wrap;html=1;aspect=fixed;" vertex="1" parent="1">
          <mxGeometry x="205" y="275" width="30" height="30" as="geometry" />
        </mxCell>
        <mxCell id="qySLcsmaPfTQFOACS7lU-51" style="edgeStyle=orthogonalEdgeStyle;rounded=0;orthogonalLoop=1;jettySize=auto;html=1;" edge="1" parent="1" source="qySLcsmaPfTQFOACS7lU-50">
          <mxGeometry relative="1" as="geometry">
            <mxPoint x="280" y="720" as="targetPoint" />
          </mxGeometry>
        </mxCell>
        <mxCell id="qySLcsmaPfTQFOACS7lU-52" value="TRUE" style="edgeLabel;html=1;align=center;verticalAlign=middle;resizable=0;points=[];" vertex="1" connectable="0" parent="qySLcsmaPfTQFOACS7lU-51">
          <mxGeometry x="-0.0196" relative="1" as="geometry">
            <mxPoint as="offset" />
          </mxGeometry>
        </mxCell>
        <mxCell id="qySLcsmaPfTQFOACS7lU-62" style="edgeStyle=orthogonalEdgeStyle;rounded=0;orthogonalLoop=1;jettySize=auto;html=1;" edge="1" parent="1" source="qySLcsmaPfTQFOACS7lU-50">
          <mxGeometry relative="1" as="geometry">
            <mxPoint x="416" y="840" as="targetPoint" />
          </mxGeometry>
        </mxCell>
        <mxCell id="qySLcsmaPfTQFOACS7lU-63" value="FALSE" style="edgeLabel;html=1;align=center;verticalAlign=middle;resizable=0;points=[];" vertex="1" connectable="0" parent="qySLcsmaPfTQFOACS7lU-62">
          <mxGeometry x="-0.1802" y="-5" relative="1" as="geometry">
            <mxPoint x="5" as="offset" />
          </mxGeometry>
        </mxCell>
        <mxCell id="qySLcsmaPfTQFOACS7lU-50" value="input == &quot;visualizza&quot;" style="rhombus;whiteSpace=wrap;html=1;" vertex="1" parent="1">
          <mxGeometry x="356" y="680" width="120" height="80" as="geometry" />
        </mxCell>
        <mxCell id="qySLcsmaPfTQFOACS7lU-54" style="edgeStyle=orthogonalEdgeStyle;rounded=0;orthogonalLoop=1;jettySize=auto;html=1;entryX=0;entryY=0.5;entryDx=0;entryDy=0;" edge="1" parent="1" source="qySLcsmaPfTQFOACS7lU-53" target="qySLcsmaPfTQFOACS7lU-59">
          <mxGeometry relative="1" as="geometry">
            <mxPoint x="-120" y="280" as="targetPoint" />
            <Array as="points">
              <mxPoint x="20" y="720" />
              <mxPoint x="20" y="721" />
              <mxPoint x="-120" y="721" />
              <mxPoint x="-120" y="290" />
            </Array>
          </mxGeometry>
        </mxCell>
        <mxCell id="qySLcsmaPfTQFOACS7lU-53" value="Write posti,&lt;div&gt;100-posti&lt;/div&gt;" style="shape=parallelogram;perimeter=parallelogramPerimeter;whiteSpace=wrap;html=1;fixedSize=1;" vertex="1" parent="1">
          <mxGeometry x="170" y="690" width="120" height="60" as="geometry" />
        </mxCell>
        <mxCell id="qySLcsmaPfTQFOACS7lU-61" style="edgeStyle=orthogonalEdgeStyle;rounded=0;orthogonalLoop=1;jettySize=auto;html=1;" edge="1" parent="1" source="qySLcsmaPfTQFOACS7lU-59" target="qySLcsmaPfTQFOACS7lU-43">
          <mxGeometry relative="1" as="geometry" />
        </mxCell>
        <mxCell id="qySLcsmaPfTQFOACS7lU-59" value="" style="ellipse;whiteSpace=wrap;html=1;aspect=fixed;" vertex="1" parent="1">
          <mxGeometry x="5" y="275" width="30" height="30" as="geometry" />
        </mxCell>
        <mxCell id="qySLcsmaPfTQFOACS7lU-65" style="edgeStyle=orthogonalEdgeStyle;rounded=0;orthogonalLoop=1;jettySize=auto;html=1;" edge="1" parent="1" source="qySLcsmaPfTQFOACS7lU-64">
          <mxGeometry relative="1" as="geometry">
            <mxPoint x="560" y="880" as="targetPoint" />
          </mxGeometry>
        </mxCell>
        <mxCell id="qySLcsmaPfTQFOACS7lU-66" value="TRUE" style="edgeLabel;html=1;align=center;verticalAlign=middle;resizable=0;points=[];" vertex="1" connectable="0" parent="qySLcsmaPfTQFOACS7lU-65">
          <mxGeometry x="0.0059" y="-2" relative="1" as="geometry">
            <mxPoint x="-9" y="-2" as="offset" />
          </mxGeometry>
        </mxCell>
        <mxCell id="qySLcsmaPfTQFOACS7lU-72" style="edgeStyle=orthogonalEdgeStyle;rounded=0;orthogonalLoop=1;jettySize=auto;html=1;" edge="1" parent="1" source="qySLcsmaPfTQFOACS7lU-64">
          <mxGeometry relative="1" as="geometry">
            <mxPoint x="416" y="1000" as="targetPoint" />
          </mxGeometry>
        </mxCell>
        <mxCell id="qySLcsmaPfTQFOACS7lU-73" value="FALSE" style="edgeLabel;html=1;align=center;verticalAlign=middle;resizable=0;points=[];" vertex="1" connectable="0" parent="qySLcsmaPfTQFOACS7lU-72">
          <mxGeometry x="-0.1802" y="-1" relative="1" as="geometry">
            <mxPoint x="1" as="offset" />
          </mxGeometry>
        </mxCell>
        <mxCell id="qySLcsmaPfTQFOACS7lU-64" value="input == &quot;elimina&quot;&quot;" style="rhombus;whiteSpace=wrap;html=1;" vertex="1" parent="1">
          <mxGeometry x="356" y="840" width="120" height="80" as="geometry" />
        </mxCell>
        <mxCell id="qySLcsmaPfTQFOACS7lU-79" style="edgeStyle=orthogonalEdgeStyle;rounded=0;orthogonalLoop=1;jettySize=auto;html=1;entryX=0;entryY=0.5;entryDx=0;entryDy=0;" edge="1" parent="1" source="qySLcsmaPfTQFOACS7lU-67" target="qySLcsmaPfTQFOACS7lU-78">
          <mxGeometry relative="1" as="geometry" />
        </mxCell>
        <mxCell id="qySLcsmaPfTQFOACS7lU-67" value="posti = 100" style="rounded=0;whiteSpace=wrap;html=1;" vertex="1" parent="1">
          <mxGeometry x="560" y="850" width="120" height="60" as="geometry" />
        </mxCell>
        <mxCell id="qySLcsmaPfTQFOACS7lU-70" style="edgeStyle=orthogonalEdgeStyle;rounded=0;orthogonalLoop=1;jettySize=auto;html=1;entryX=1;entryY=0.5;entryDx=0;entryDy=0;" edge="1" parent="1" source="qySLcsmaPfTQFOACS7lU-68" target="qySLcsmaPfTQFOACS7lU-15">
          <mxGeometry relative="1" as="geometry" />
        </mxCell>
        <mxCell id="qySLcsmaPfTQFOACS7lU-68" value="" style="ellipse;whiteSpace=wrap;html=1;aspect=fixed;" vertex="1" parent="1">
          <mxGeometry x="805" y="275" width="30" height="30" as="geometry" />
        </mxCell>
        <mxCell id="qySLcsmaPfTQFOACS7lU-76" style="edgeStyle=orthogonalEdgeStyle;rounded=0;orthogonalLoop=1;jettySize=auto;html=1;entryX=0.5;entryY=0;entryDx=0;entryDy=0;" edge="1" parent="1" source="qySLcsmaPfTQFOACS7lU-74" target="qySLcsmaPfTQFOACS7lU-75">
          <mxGeometry relative="1" as="geometry" />
        </mxCell>
        <mxCell id="qySLcsmaPfTQFOACS7lU-77" value="TRUE" style="edgeLabel;html=1;align=center;verticalAlign=middle;resizable=0;points=[];" vertex="1" connectable="0" parent="qySLcsmaPfTQFOACS7lU-76">
          <mxGeometry x="-0.2" y="-4" relative="1" as="geometry">
            <mxPoint x="4" y="8" as="offset" />
          </mxGeometry>
        </mxCell>
        <mxCell id="qySLcsmaPfTQFOACS7lU-81" style="edgeStyle=orthogonalEdgeStyle;rounded=0;orthogonalLoop=1;jettySize=auto;html=1;entryX=0.5;entryY=1;entryDx=0;entryDy=0;" edge="1" parent="1" source="qySLcsmaPfTQFOACS7lU-74" target="qySLcsmaPfTQFOACS7lU-78">
          <mxGeometry relative="1" as="geometry" />
        </mxCell>
        <mxCell id="qySLcsmaPfTQFOACS7lU-82" value="FALSE" style="edgeLabel;html=1;align=center;verticalAlign=middle;resizable=0;points=[];" vertex="1" connectable="0" parent="qySLcsmaPfTQFOACS7lU-81">
          <mxGeometry x="-0.875" y="-1" relative="1" as="geometry">
            <mxPoint x="-5" y="-1" as="offset" />
          </mxGeometry>
        </mxCell>
        <mxCell id="qySLcsmaPfTQFOACS7lU-74" value="input == &quot;esci&quot;&quot;" style="rhombus;whiteSpace=wrap;html=1;" vertex="1" parent="1">
          <mxGeometry x="356" y="1000" width="120" height="80" as="geometry" />
        </mxCell>
        <mxCell id="qySLcsmaPfTQFOACS7lU-75" value="END" style="ellipse;whiteSpace=wrap;html=1;" vertex="1" parent="1">
          <mxGeometry x="356" y="1160" width="120" height="80" as="geometry" />
        </mxCell>
        <mxCell id="qySLcsmaPfTQFOACS7lU-80" style="edgeStyle=orthogonalEdgeStyle;rounded=0;orthogonalLoop=1;jettySize=auto;html=1;entryX=1;entryY=0.5;entryDx=0;entryDy=0;" edge="1" parent="1" source="qySLcsmaPfTQFOACS7lU-78" target="qySLcsmaPfTQFOACS7lU-68">
          <mxGeometry relative="1" as="geometry">
            <mxPoint x="955" y="280" as="targetPoint" />
            <Array as="points">
              <mxPoint x="955" y="573" />
              <mxPoint x="956" y="573" />
              <mxPoint x="956" y="290" />
            </Array>
          </mxGeometry>
        </mxCell>
        <mxCell id="qySLcsmaPfTQFOACS7lU-78" value="" style="ellipse;whiteSpace=wrap;html=1;aspect=fixed;" vertex="1" parent="1">
          <mxGeometry x="940" y="865" width="30" height="30" as="geometry" />
        </mxCell>
      </root>
    </mxGraphModel>
  </diagram>
</mxfile>
